<?xml version="1.0" encoding="UTF-8" standalone="no"?>
<svg
   height="16px"
   viewBox="0 0 16 16"
   width="16px"
   version="1.1"
   id="svg4"
   sodipodi:docname="exporter.svg"
   inkscape:version="1.2.2 (b0a8486541, 2022-12-01)"
   xmlns:inkscape="http://www.inkscape.org/namespaces/inkscape"
   xmlns:sodipodi="http://sodipodi.sourceforge.net/DTD/sodipodi-0.dtd"
   xmlns="http://www.w3.org/2000/svg"
   xmlns:svg="http://www.w3.org/2000/svg">
  <defs
     id="defs8" />
  <sodipodi:namedview
     id="namedview6"
     pagecolor="#ffffff"
     bordercolor="#666666"
     borderopacity="1.0"
     inkscape:showpageshadow="2"
     inkscape:pageopacity="0.0"
     inkscape:pagecheckerboard="0"
     inkscape:deskcolor="#d1d1d1"
     showgrid="false"
     inkscape:zoom="14.75"
     inkscape:cx="8"
     inkscape:cy="8"
     inkscape:window-width="1280"
     inkscape:window-height="747"
     inkscape:window-x="0"
     inkscape:window-y="0"
     inkscape:window-maximized="1"
     inkscape:current-layer="svg4" />
  <path
     d="m 8,16.007812 c 0.257812,0 0.511719,-0.09766 0.707031,-0.292969 l 1.246094,-1.25 1.765625,-1.730469 C 11.910156,12.535156 12,12.292968 12,11.984374 c 0,-0.976562 -1,-1 -1,-1 -0.257812,0 -0.527344,0.128907 -0.71875,0.3125 L 9,12.578124 V 5.007812 c 0,0 0,-1 -1,-1 -1,0 -1,1 -1,1 v 7.570312 L 5.71875,11.296874 C 5.527344,11.113281 5.308594,10.984374 5,10.984374 c 0,0 -1,0.02344 -1,1 0,0.308594 0.08984,0.550782 0.28125,0.75 l 1.765625,1.730469 1.246094,1.25 C 7.488281,15.910156 7.742188,16.007812 8,16.007812 Z M 11.96875,9.042968 C 13.628906,9.070312 15,7.671874 15,6.007812 V 3.035156 C 15,1.371093 13.628906,0 11.96875,0 H 4.03125 C 2.367188,0 1,1.371093 1,3.035156 v 2.972656 c 0,1.664062 1.367188,3.0625 3.03125,3.035156 L 6,9.007812 v -2 L 4.03125,7.042968 C 3.441406,7.050778 3,6.597656 3,6.007812 V 3.035156 C 3,2.445312 3.441406,2 4.03125,2 h 7.9375 C 12.554688,2 13,2.445312 13,3.035156 v 2.972656 c 0,0.589844 -0.445312,1.042969 -1.03125,1.035156 L 10,7.007812 v 2 z m 0,0"
     fill="#2e3436"
     id="path2" />
</svg>
