<?xml version="1.0" encoding="UTF-8" standalone="no"?>
<svg
   xmlns:dc="http://purl.org/dc/elements/1.1/"
   xmlns:cc="http://creativecommons.org/ns#"
   xmlns:rdf="http://www.w3.org/1999/02/22-rdf-syntax-ns#"
   xmlns:svg="http://www.w3.org/2000/svg"
   xmlns="http://www.w3.org/2000/svg"
   xmlns:sodipodi="http://sodipodi.sourceforge.net/DTD/sodipodi-0.dtd"
   xmlns:inkscape="http://www.inkscape.org/namespaces/inkscape"
   viewBox="0 0 64 64"
   version="1.1"
   id="svg4590"
   sodipodi:docname="drafting-compass.svg"
   width="64"
   height="64"
   inkscape:version="0.92.4 (5da689c313, 2019-01-14)">
  <metadata
     id="metadata4596">
    <rdf:RDF>
      <cc:Work
         rdf:about="">
        <dc:format>image/svg+xml</dc:format>
        <dc:type
           rdf:resource="http://purl.org/dc/dcmitype/StillImage" />
        <dc:title />
      </cc:Work>
    </rdf:RDF>
  </metadata>
  <defs
     id="defs4594" />
  <sodipodi:namedview
     pagecolor="#ffffff"
     bordercolor="#666666"
     borderopacity="1"
     objecttolerance="10"
     gridtolerance="10"
     guidetolerance="10"
     inkscape:pageopacity="0"
     inkscape:pageshadow="0"
     inkscape:window-width="918"
     inkscape:window-height="600"
     id="namedview4592"
     showgrid="false"
     inkscape:zoom="5"
     inkscape:cx="7.6"
     inkscape:cy="32"
     inkscape:window-x="354"
     inkscape:window-y="141"
     inkscape:window-maximized="0"
     inkscape:current-layer="svg4590" />
  <path
     d="m 57.127365,43.05183 c -3.131312,2.541212 -6.578879,4.647428 -10.317701,6.131155 l 6.797632,11.773567 6.743882,2.879956 c 1.226273,0.523741 2.611301,-0.276246 2.771304,-1.599976 L 64,54.955395 Z M 62.438719,31.232014 C 63.04623,30.27328 62.674973,28.9833 61.682454,28.433307 l -3.508818,-1.946219 c -0.935018,-0.518742 -2.076292,-0.182497 -2.657552,0.714989 -5.13885,7.941127 -13.984023,12.797301 -23.51546,12.797301 -2.991308,0 -5.903865,-0.531242 -8.67642,-1.441228 L 31.74437,23.973377 c 0.0875,0.0025 0.167504,0.02625 0.255004,0.02625 0.08751,0 0.168753,-0.02375 0.255005,-0.02625 l 6.386375,11.062328 c 3.903826,-1.119982 7.445146,-3.2187 10.326451,-6.114904 L 42.49333,17.707225 c 0.931268,-1.703724 1.507529,-3.628694 1.507529,-5.707412 C 44.000859,5.3724164 38.628254,-2.2469217e-8 32.000624,-2.2469217e-8 25.372994,-2.2469217e-8 20.000391,5.3724164 20.000391,11.999813 c 0,2.078718 0.576261,4.003688 1.506279,5.707412 l -8.537667,14.78852 C 11.400223,31.044517 9.9739448,29.422043 8.7589209,27.620821 8.1601593,26.733334 7.0126369,26.418338 6.0863688,26.954581 L 2.6175511,28.9633 c -0.9812691,0.567491 -1.3287759,1.862471 -0.7050137,2.808707 1.9462879,2.954953 4.3363345,5.526162 6.9976364,7.752378 L 0,54.956646 0.87751713,62.237782 c 0.16000307,1.32373 1.54503017,2.123717 2.77130407,1.599975 L 10.392703,60.957802 19.242876,45.62929 c 4.023828,1.529977 8.335163,2.369964 12.757748,2.369964 12.381492,0 23.860467,-6.376151 30.438095,-16.76724 z M 32.000624,7.9998757 c 2.208794,0 4.000079,1.7912223 4.000079,3.9999373 0,2.208716 -1.791285,3.999938 -4.000079,3.999938 -2.208792,0 -4.000077,-1.791222 -4.000077,-3.999938 0,-2.208715 1.791285,-3.9999373 4.000077,-3.9999373 z"
     id="path4588"
     inkscape:connector-curvature="0"
     style="stroke-width:0.12500025;fill:#0000a0;fill-opacity:1" />
</svg>
