<?xml version="1.0" encoding="UTF-8" standalone="no"?>
<svg
   viewBox="0 0 16 16"
   version="1.1"
   id="svg6"
   sodipodi:docname="offset.svg"
   inkscape:version="1.2.2 (b0a8486541, 2022-12-01)"
   xmlns:inkscape="http://www.inkscape.org/namespaces/inkscape"
   xmlns:sodipodi="http://sodipodi.sourceforge.net/DTD/sodipodi-0.dtd"
   xmlns="http://www.w3.org/2000/svg"
   xmlns:svg="http://www.w3.org/2000/svg">
  <sodipodi:namedview
     id="namedview8"
     pagecolor="#ffffff"
     bordercolor="#666666"
     borderopacity="1.0"
     inkscape:showpageshadow="2"
     inkscape:pageopacity="0.0"
     inkscape:pagecheckerboard="0"
     inkscape:deskcolor="#d1d1d1"
     showgrid="false"
     inkscape:zoom="41.7193"
     inkscape:cx="15.436501"
     inkscape:cy="8.4373419"
     inkscape:window-width="1280"
     inkscape:window-height="747"
     inkscape:window-x="0"
     inkscape:window-y="0"
     inkscape:window-maximized="1"
     inkscape:current-layer="svg6" />
  <defs
     id="defs3051">
    <style
       type="text/css"
       id="current-color-scheme">
      .ColorScheme-Text {
        color:#232629;
      }
      </style>
  </defs>
  <path
     style="fill:currentColor;fill-opacity:1;stroke:none"
     d="M 10,2.5 C 9.0680195,2.5 8.2844627,2.9373007 8.0625,3.8 H 2 V 5.2 H 8.0625 C 8.2844627,6.0626993 9.0680195,6.5 10,6.5 c 0.931981,0 1.715537,-0.4373007 1.9375,-1.3 H 14 V 3.8 H 11.9375 C 11.715537,2.9373007 10.931981,2.5 10,2.5 Z m -5,7 C 4.0680191,9.5 3.2844626,9.937301 3.0625,10.8 H 2 v 1.4 h 1.0625 c 0.2219626,0.862699 1.0055191,1.3 1.9375,1.3 0.9319809,0 1.7155374,-0.437301 1.9375,-1.3 H 7 9 14 V 10.8 H 9 7 6.9375 C 6.7155374,9.937301 5.9319809,9.5 5,9.5 Z m 0,1 c 0.55228,0 1,0.44772 1,1 0,0.55228 -0.44772,1 -1,1 -0.55228,0 -1,-0.44772 -1,-1 0,-0.55228 0.44772,-1 1,-1 z"
     class="ColorScheme-Text"
     id="path4"
     sodipodi:nodetypes="sccccsccccssccccsccccccccssssss" />
</svg>
