<?xml version="1.0" encoding="UTF-8" standalone="no"?>
<svg
   width="16"
   height="16"
   version="1.1"
   id="svg10"
   sodipodi:docname="terminal.svg"
   inkscape:version="1.2.2 (b0a8486541, 2022-12-01)"
   xmlns:inkscape="http://www.inkscape.org/namespaces/inkscape"
   xmlns:sodipodi="http://sodipodi.sourceforge.net/DTD/sodipodi-0.dtd"
   xmlns="http://www.w3.org/2000/svg"
   xmlns:svg="http://www.w3.org/2000/svg">
  <defs
     id="defs14" />
  <sodipodi:namedview
     id="namedview12"
     pagecolor="#ffffff"
     bordercolor="#666666"
     borderopacity="1.0"
     inkscape:showpageshadow="2"
     inkscape:pageopacity="0.0"
     inkscape:pagecheckerboard="0"
     inkscape:deskcolor="#d1d1d1"
     showgrid="false"
     inkscape:zoom="41.7193"
     inkscape:cx="10.762405"
     inkscape:cy="8.5332208"
     inkscape:window-width="1280"
     inkscape:window-height="747"
     inkscape:window-x="0"
     inkscape:window-y="0"
     inkscape:window-maximized="1"
     inkscape:current-layer="g8" />
  <g
     color="#bebebe"
     fill="#474747"
     id="g8">
    <path
       d="M2.2 0C.993 0 0 1.007 0 2.209v10.582C0 13.993.994 15 2.2 15h11.6c1.206 0 2.2-1.007 2.2-2.209V2.209C16 1.007 15.006 0 13.8 0zm0 2h11.6c.124 0 .2.071.2.209v10.582c0 .138-.076.209-.2.209H2.2c-.124 0-.2-.071-.2-.209V2.209C2 2.071 2.076 2 2.2 2z"
       style="line-height:normal;font-variant-ligatures:normal;font-variant-position:normal;font-variant-caps:normal;font-variant-numeric:normal;font-variant-alternates:normal;font-feature-settings:normal;text-indent:0;text-align:start;text-decoration-line:none;text-decoration-style:solid;text-decoration-color:#000;text-transform:none;text-orientation:mixed;shape-padding:0;isolation:auto;mix-blend-mode:normal;marker:none"
       font-weight="400"
       font-family="sans-serif"
       overflow="visible"
       id="path2" />
    <path
       d="M 4.494,5.895 C 3.9569163,5.8963184 3.6919824,6.6485122 4.076,7.024 L 5.552,8.5 4.076,9.976 c -0.6063129,0.564968 0.2830317,1.554313 0.848,0.948 l 2,-2 c 0.2339627,-0.234254 0.2339627,-0.613746 0,-0.848 l -2,-2 C 4.8109528,5.9601295 4.6558815,5.8948553 4.494,5.895 Z"
       style="line-height:normal;font-variant-ligatures:normal;font-variant-position:normal;font-variant-caps:normal;font-variant-numeric:normal;font-variant-alternates:normal;font-feature-settings:normal;text-indent:0;text-align:start;text-decoration-line:none;text-decoration-style:solid;text-decoration-color:#000000;text-transform:none;text-orientation:mixed;shape-padding:0;isolation:auto;mix-blend-mode:normal;marker:none"
       font-weight="400"
       font-family="sans-serif"
       overflow="visible"
       id="path4"
       sodipodi:nodetypes="ccccccccc" />
    <path
       d="m 8,9.9 h 3 v 1.2 H 8 Z"
       style="marker:none"
       overflow="visible"
       id="path6"
       sodipodi:nodetypes="ccccc" />
  </g>
</svg>
