<?xml version="1.0" encoding="UTF-8" standalone="no"?>
<svg
   xmlns:dc="http://purl.org/dc/elements/1.1/"
   xmlns:cc="http://creativecommons.org/ns#"
   xmlns:rdf="http://www.w3.org/1999/02/22-rdf-syntax-ns#"
   xmlns:svg="http://www.w3.org/2000/svg"
   xmlns="http://www.w3.org/2000/svg"
   xmlns:sodipodi="http://sodipodi.sourceforge.net/DTD/sodipodi-0.dtd"
   xmlns:inkscape="http://www.inkscape.org/namespaces/inkscape"
   viewBox="0 0 64 64"
   version="1.1"
   id="svg1926"
   sodipodi:docname="zoom.svg"
   width="64"
   height="64"
   inkscape:version="0.92.4 (5da689c313, 2019-01-14)">
  <metadata
     id="metadata1932">
    <rdf:RDF>
      <cc:Work
         rdf:about="">
        <dc:format>image/svg+xml</dc:format>
        <dc:type
           rdf:resource="http://purl.org/dc/dcmitype/StillImage" />
        <dc:title></dc:title>
      </cc:Work>
    </rdf:RDF>
  </metadata>
  <defs
     id="defs1930" />
  <sodipodi:namedview
     pagecolor="#ffffff"
     bordercolor="#666666"
     borderopacity="1"
     objecttolerance="10"
     gridtolerance="10"
     guidetolerance="10"
     inkscape:pageopacity="0"
     inkscape:pageshadow="2"
     inkscape:window-width="980"
     inkscape:window-height="622"
     id="namedview1928"
     showgrid="false"
     inkscape:pagecheckerboard="true"
     inkscape:showpageshadow="false"
     inkscape:zoom="5"
     inkscape:cx="35.617391"
     inkscape:cy="35.054054"
     inkscape:window-x="2684"
     inkscape:window-y="210"
     inkscape:window-maximized="0"
     inkscape:current-layer="svg1926" />
  <path
     d="m 38.001855,23.997657 v 3.999609 c 0,0.82492 -0.675032,1.499854 -1.500072,1.499854 H 29.50144 v 6.999316 c 0,0.82492 -0.675032,1.499854 -1.500072,1.499854 h -4.000195 c -0.825042,0 -1.500074,-0.674934 -1.500074,-1.499854 V 29.49712 h -7.000343 c -0.82504,0 -1.500072,-0.674934 -1.500072,-1.499854 v -3.999609 c 0,-0.82492 0.675032,-1.499854 1.500072,-1.499854 h 7.000343 v -6.999316 c 0,-0.82492 0.675032,-1.499854 1.500074,-1.499854 h 4.000195 c 0.82504,0 1.500072,0.674934 1.500072,1.499854 v 6.999316 h 7.000343 c 0.82504,0 1.500072,0.674934 1.500072,1.499854 z m 25.126228,35.584025 -3.537673,3.537154 c -1.175057,1.174886 -3.07515,1.174886 -4.237707,0 L 42.877094,50.657553 c -0.562528,-0.562445 -0.875043,-1.32487 -0.875043,-2.124792 V 46.495459 C 37.589335,49.945122 32.039065,51.994922 26.00127,51.994922 11.638068,51.994922 0,40.358559 0,25.997462 0,11.636364 11.638068,2.4999999e-7 26.00127,2.4999999e-7 40.364471,2.4999999e-7 52.002539,11.636364 52.002539,25.997462 c 0,6.036909 -2.0501,11.586368 -5.500269,15.998437 h 2.0376 c 0.800039,0 1.562576,0.31247 2.125104,0.874914 l 12.463109,12.461284 c 1.162556,1.174885 1.162556,3.0747 0,4.249585 z M 43.0021,25.997462 c 0,-9.399082 -7.600371,-16.9983406 -17.00083,-16.9983406 -9.40046,0 -17.0008305,7.5992586 -17.0008305,16.9983406 0,9.399082 7.6003705,16.99834 17.0008305,16.99834 9.400459,0 17.00083,-7.599258 17.00083,-16.99834 z"
     id="path1924"
     inkscape:connector-curvature="0"
     style="stroke-width:0.12499695;fill:#000000;fill-opacity:1" />
</svg>
