<?xml version="1.0" encoding="UTF-8" standalone="no"?>
<svg
   xmlns:dc="http://purl.org/dc/elements/1.1/"
   xmlns:cc="http://creativecommons.org/ns#"
   xmlns:rdf="http://www.w3.org/1999/02/22-rdf-syntax-ns#"
   xmlns:svg="http://www.w3.org/2000/svg"
   xmlns="http://www.w3.org/2000/svg"
   xmlns:sodipodi="http://sodipodi.sourceforge.net/DTD/sodipodi-0.dtd"
   xmlns:inkscape="http://www.inkscape.org/namespaces/inkscape"
   viewBox="0 0 1792 1792"
   version="1.1"
   id="svg1370"
   sodipodi:docname="measure.svg"
   width="64"
   height="64"
   inkscape:version="0.92.4 (5da689c313, 2019-01-14)">
  <metadata
     id="metadata1376">
    <rdf:RDF>
      <cc:Work
         rdf:about="">
        <dc:format>image/svg+xml</dc:format>
        <dc:type
           rdf:resource="http://purl.org/dc/dcmitype/StillImage" />
        <dc:title />
      </cc:Work>
    </rdf:RDF>
  </metadata>
  <defs
     id="defs1374" />
  <sodipodi:namedview
     pagecolor="#ffffff"
     bordercolor="#666666"
     borderopacity="1"
     objecttolerance="10"
     gridtolerance="10"
     guidetolerance="10"
     inkscape:pageopacity="0"
     inkscape:pageshadow="2"
     inkscape:window-width="1168"
     inkscape:window-height="689"
     id="namedview1372"
     showgrid="false"
     inkscape:pagecheckerboard="true"
     inkscape:showpageshadow="false"
     inkscape:zoom="5"
     inkscape:cx="25.753319"
     inkscape:cy="45.486873"
     inkscape:window-x="104"
     inkscape:window-y="52"
     inkscape:window-maximized="0"
     inkscape:current-layer="svg1370" />
  <path
     d="m 1599.5663,1205.4513 c -87.6767,71.1538 -184.2085,130.1278 -288.8957,171.6723 l 190.3336,329.6598 188.8289,80.6388 c 34.3356,14.6647 73.1163,-7.7349 77.5964,-44.7993 L 1792,1538.751 Z m 148.7176,-330.95486 c 17.0105,-26.84467 6.6153,-62.96404 -21.1753,-78.36382 l -98.2469,-54.49416 c -26.1805,-14.52477 -58.136,-5.10992 -74.4115,20.0197 -143.8877,222.35159 -391.5525,358.32444 -658.4327,358.32444 -83.75664,0 -165.30824,-14.8748 -242.93975,-40.3544 L 888.84234,671.25455 c 2.45005,0.07 4.6901,0.73499 7.14014,0.73499 2.45006,0 4.72511,-0.66497 7.14015,-0.73499 l 178.81857,309.74508 c 109.307,-31.35943 208.464,-90.12344 289.1406,-171.2172 L 1189.8132,495.80228 C 1215.8887,448.09802 1232.024,394.19886 1232.024,335.99476 1232.024,150.42765 1081.5912,-1.5403917e-5 896.0175,-1.5403917e-5 710.44386,-1.5403917e-5 560.01093,150.42765 560.01093,335.99476 c 0,58.2041 16.13531,112.10326 42.17583,159.80752 L 363.13209,909.88079 C 319.20624,869.24651 279.27045,823.81716 245.24977,773.38298 228.48445,748.53336 196.35383,739.7135 170.41833,754.72827 L 73.291434,810.9724 C 45.815891,826.86214 36.085707,863.12161 53.551051,889.61611 108.04711,972.35477 174.96842,1044.3487 249.48487,1106.6828 L 0,1538.7861 24.570475,1742.6579 c 4.48009,37.0645 43.26085,59.4641 77.596525,44.7993 l 188.82869,-80.6387 247.80483,-429.1984 c 112.6672,42.8393 233.38455,66.359 357.21698,66.359 346.6817,0 668.0931,-178.5323 852.2664,-469.48266 z M 896.0175,223.9965 c 61.8462,0 112.0022,50.15421 112.0022,111.99826 0,61.84403 -50.156,111.99827 -112.0022,111.99827 -61.84622,0 -112.0022,-50.15424 -112.0022,-111.99827 0,-61.84405 50.15598,-111.99826 112.0022,-111.99826 z"
     id="path1368"
     inkscape:connector-curvature="0"
     style="stroke-width:3.50000715;fill:#d0d0d0;fill-opacity:1" />
</svg>
